<svg xmlns="http://www.w3.org/2000/svg" aria-hidden="true" style="position:absolute;width:0;height:0;overflow:hidden">
  <defs>
    <symbol id="menu-button" viewBox="0 0 28 28">
      <path stroke-linecap="round" stroke-linejoin="round" stroke-width="2" d="M3.5 14h21m-21-7h21m-21 14h14" />
    </symbol>
    <symbol id="close-button" viewBox="0 0 28 28">
      <path stroke-linecap="round" stroke-linejoin="round" stroke-width="2" d="M21 7 7 21M7 7l14 14" />
    </symbol>
    <symbol id="instagram" viewBox="0 0 28 28">
      <path stroke-linecap="round" stroke-linejoin="round" stroke-width="1.82" d="M19.832 2.332H8.165a5.833 5.833 0 0 0-5.833 5.833v11.667a5.833 5.833 0 0 0 5.833 5.833h11.667a5.833 5.833 0 0 0 5.833-5.833V8.165a5.833 5.833 0 0 0-5.833-5.833z" />
      <path stroke-linecap="round" stroke-linejoin="round" stroke-width="1.82" d="M18.667 13.265a4.667 4.667 0 1 1-9.234 1.37 4.667 4.667 0 0 1 9.234-1.371zM20.418 7.582h.014" />
    </symbol>
    <symbol id="facebook" viewBox="0 0 28 28">
      <path stroke-linecap="round" stroke-linejoin="round" stroke-width="1.82" d="M21.001 2.332h-3.5a5.834 5.834 0 0 0-5.834 5.834v3.5h-3.5v4.667h3.5v9.333h4.667v-9.333h3.5l1.167-4.667h-4.667v-3.5a1.167 1.167 0 0 1 1.167-1.167h3.5V2.332z" />
    </symbol>
    <symbol id="twitter" viewBox="0 0 28 28">
      <path stroke-linecap="round" stroke-linejoin="round" stroke-width="1.82" d="M26.834 3.501a12.71 12.71 0 0 1-3.663 1.785 5.23 5.23 0 0 0-8.268.494 5.233 5.233 0 0 0-.902 3.006v1.167a12.441 12.441 0 0 1-10.5-5.285s-4.667 10.5 5.833 15.167a13.576 13.576 0 0 1-8.167 2.333c10.5 5.833 23.333 0 23.333-13.417a5.239 5.239 0 0 0-.093-.968 9.006 9.006 0 0 0 2.427-4.282z" />
    </symbol>
    <symbol id="arrow-left" viewBox="0 0 18 32">
      <path d="M16 0c-0.552 0-1.052 0.224-1.414 0.586l-14 14c-0.362 0.362-0.586 0.862-0.586 1.414s0.224 1.052 0.586 1.414l14 14c0.362 0.362 0.862 0.586 1.414 0.586s1.052-0.224 1.414-0.586v0c0.362-0.362 0.586-0.862 0.586-1.414s-0.224-1.052-0.586-1.414l-12.586-12.586 12.586-12.586c0.362-0.362 0.586-0.862 0.586-1.414s-0.224-1.052-0.586-1.414v0c-0.362-0.362-0.862-0.586-1.414-0.586v0z"></path>
    </symbol>
    <symbol id="arrow-right" viewBox="0 0 18 32">
      <path d="M2 0c-0.552 0-1.052 0.224-1.414 0.586v0c-0.362 0.362-0.586 0.862-0.586 1.414s0.224 1.052 0.586 1.414l12.586 12.586-12.586 12.586c-0.362 0.362-0.586 0.862-0.586 1.414s0.224 1.052 0.586 1.414v0c0.362 0.362 0.862 0.586 1.414 0.586s1.052-0.224 1.414-0.586l14-14c0.362-0.362 0.586-0.862 0.586-1.414s-0.224-1.052-0.586-1.414l-14-14c-0.362-0.362-0.862-0.586-1.414-0.586v0z"></path>
    </symbol>
    <!-- NIK ARROW -->
    <symbol id="icon-button-prev" viewBox="0 0 32 32">
      <path d="M26 1.999c0 0.557-0.231 1.111-0.683 1.506l-14.28 12.495 14.28 12.495c0.831 0.727 0.916 1.991 0.188 2.822s-1.991 0.916-2.822 0.188l-16-14c-0.434-0.38-0.683-0.928-0.683-1.505s0.249-1.125 0.683-1.505l16-14c0.831-0.727 2.095-0.643 2.822 0.188 0.332 0.379 0.495 0.849 0.495 1.316z"></path>
    </symbol>
    <symbol id="icon-button-next" viewBox="0 0 32 32">
      <path d="M6 1.999c0 0.557 0.231 1.111 0.683 1.506l14.28 12.495-14.28 12.495c-0.831 0.727-0.916 1.991-0.188 2.822s1.991 0.916 2.822 0.188l16-14c0.434-0.38 0.683-0.928 0.683-1.505s-0.249-1.125-0.683-1.505l-16-14c-0.831-0.727-2.095-0.643-2.822 0.188-0.332 0.379-0.495 0.849-0.495 1.316z"></path>
    </symbol>
    <!-- END -->
    <symbol id="icon-close" viewBox="0 0 8 8">
      <path d="M8 .806 7.194 0 4 3.194.806 0 0 .806 3.194 4 0 7.194.806 8 4 4.806 7.194 8 8 7.194 4.806 4 8 .806Z" />
    </symbol>
    <symbol id="icon-twitter" viewBox="0 0 24 24">
      <path d="M20.833 5.262c-0.186 0.242-0.391 0.475-0.616 0.696-0.233 0.232-0.347 0.567-0.278 0.908 0.037 0.182 0.060 0.404 0.061 0.634 0 5.256-2.429 8.971-5.81 10.898-2.647 1.509-5.938 1.955-9.222 1.12 1.245-0.361 2.46-0.921 3.593-1.69 0.147-0.099 0.273-0.243 0.352-0.421 0.224-0.505-0.003-1.096-0.508-1.32-2.774-1.233-4.13-2.931-4.769-4.593-0.417-1.084-0.546-2.198-0.52-3.227 0.021-0.811 0.138-1.56 0.278-2.182 0.394 0.343 0.803 0.706 1.235 1.038 2.051 1.577 4.624 2.479 7.395 2.407 0.543-0.015 0.976-0.457 0.976-1v-1.011c-0.002-0.179 0.009-0.357 0.034-0.533 0.113-0.806 0.504-1.569 1.162-2.141 0.725-0.631 1.636-0.908 2.526-0.846s1.753 0.463 2.384 1.188c0.252 0.286 0.649 0.416 1.033 0.304 0.231-0.067 0.463-0.143 0.695-0.228zM22.424 2.183c-0.74 0.522-1.523 0.926-2.287 1.205-0.931-0.836-2.091-1.302-3.276-1.385-1.398-0.097-2.836 0.339-3.977 1.332-1.036 0.901-1.652 2.108-1.83 3.372-0.037 0.265-0.055 0.532-0.054 0.8-1.922-0.142-3.693-0.85-5.15-1.97-0.775-0.596-1.462-1.309-2.034-2.116-0.32-0.45-0.944-0.557-1.394-0.237-0.154 0.109-0.267 0.253-0.335 0.409 0 0-0.132 0.299-0.285 0.76-0.112 0.337-0.241 0.775-0.357 1.29-0.163 0.722-0.302 1.602-0.326 2.571-0.031 1.227 0.12 2.612 0.652 3.996 0.683 1.775 1.966 3.478 4.147 4.823-1.569 0.726-3.245 1.039-4.873 0.967-0.552-0.024-1.019 0.403-1.043 0.955-0.017 0.389 0.19 0.736 0.513 0.918 4.905 2.725 10.426 2.678 14.666 0.261 4.040-2.301 6.819-6.7 6.819-12.634-0.001-0.167-0.008-0.33-0.023-0.489 1.006-1.115 1.676-2.429 1.996-3.781 0.127-0.537-0.206-1.076-0.743-1.203-0.29-0.069-0.58-0.003-0.807 0.156z"></path>
    </symbol>
    <symbol id="icon-facebook" viewBox="0 0 24 24">
      <path d="M17 3v2h-2c-0.552 0-1.053 0.225-1.414 0.586s-0.586 0.862-0.586 1.414v3c0 0.552 0.448 1 1 1h2.719l-0.5 2h-2.219c-0.552 0-1 0.448-1 1v7h-2v-7c0-0.552-0.448-1-1-1h-2v-2h2c0.552 0 1-0.448 1-1v-3c0-1.105 0.447-2.103 1.172-2.828s1.723-1.172 2.828-1.172zM18 1h-3c-1.657 0-3.158 0.673-4.243 1.757s-1.757 2.586-1.757 4.243v2h-2c-0.552 0-1 0.448-1 1v4c0 0.552 0.448 1 1 1h2v7c0 0.552 0.448 1 1 1h4c0.552 0 1-0.448 1-1v-7h2c0.466 0 0.858-0.319 0.97-0.757l1-4c0.134-0.536-0.192-1.079-0.728-1.213-0.083-0.021-0.167-0.031-0.242-0.030h-3v-2h3c0.552 0 1-0.448 1-1v-4c0-0.552-0.448-1-1-1z"></path>
    </symbol>
    <symbol id="icon-instagram" viewBox="0 0 32 32">
      <path d="M16 2.881c4.275 0 4.781 0.019 6.462 0.094 1.563 0.069 2.406 0.331 2.969 0.55 0.744 0.288 1.281 0.638 1.837 1.194 0.563 0.563 0.906 1.094 1.2 1.838 0.219 0.563 0.481 1.412 0.55 2.969 0.075 1.688 0.094 2.194 0.094 6.463s-0.019 4.781-0.094 6.463c-0.069 1.563-0.331 2.406-0.55 2.969-0.288 0.744-0.637 1.281-1.194 1.837-0.563 0.563-1.094 0.906-1.837 1.2-0.563 0.219-1.413 0.481-2.969 0.55-1.688 0.075-2.194 0.094-6.463 0.094s-4.781-0.019-6.463-0.094c-1.563-0.069-2.406-0.331-2.969-0.55-0.744-0.288-1.281-0.637-1.838-1.194-0.563-0.563-0.906-1.094-1.2-1.837-0.219-0.563-0.481-1.413-0.55-2.969-0.075-1.688-0.094-2.194-0.094-6.463s0.019-4.781 0.094-6.463c0.069-1.563 0.331-2.406 0.55-2.969 0.288-0.744 0.638-1.281 1.194-1.838 0.563-0.563 1.094-0.906 1.838-1.2 0.563-0.219 1.412-0.481 2.969-0.55 1.681-0.075 2.188-0.094 6.463-0.094zM16 0c-4.344 0-4.887 0.019-6.594 0.094-1.7 0.075-2.869 0.35-3.881 0.744-1.056 0.412-1.95 0.956-2.837 1.85-0.894 0.888-1.438 1.781-1.85 2.831-0.394 1.019-0.669 2.181-0.744 3.881-0.075 1.713-0.094 2.256-0.094 6.6s0.019 4.887 0.094 6.594c0.075 1.7 0.35 2.869 0.744 3.881 0.413 1.056 0.956 1.95 1.85 2.837 0.887 0.887 1.781 1.438 2.831 1.844 1.019 0.394 2.181 0.669 3.881 0.744 1.706 0.075 2.25 0.094 6.594 0.094s4.888-0.019 6.594-0.094c1.7-0.075 2.869-0.35 3.881-0.744 1.050-0.406 1.944-0.956 2.831-1.844s1.438-1.781 1.844-2.831c0.394-1.019 0.669-2.181 0.744-3.881 0.075-1.706 0.094-2.25 0.094-6.594s-0.019-4.887-0.094-6.594c-0.075-1.7-0.35-2.869-0.744-3.881-0.394-1.063-0.938-1.956-1.831-2.844-0.887-0.887-1.781-1.438-2.831-1.844-1.019-0.394-2.181-0.669-3.881-0.744-1.712-0.081-2.256-0.1-6.6-0.1v0z"></path>
      <path d="M16 7.781c-4.537 0-8.219 3.681-8.219 8.219s3.681 8.219 8.219 8.219 8.219-3.681 8.219-8.219c0-4.537-3.681-8.219-8.219-8.219zM16 21.331c-2.944 0-5.331-2.387-5.331-5.331s2.387-5.331 5.331-5.331c2.944 0 5.331 2.387 5.331 5.331s-2.387 5.331-5.331 5.331z"></path>
      <path d="M26.462 7.456c0 1.060-0.859 1.919-1.919 1.919s-1.919-0.859-1.919-1.919c0-1.060 0.859-1.919 1.919-1.919s1.919 0.859 1.919 1.919z"></path>
    </symbol>
    <symbol id="icon-burger-menu" viewBox="0 0 32 32">
      <path stroke-linejoin="round" stroke-linecap="round" stroke-miterlimit="4" stroke-width="2.2857" d="M4 16h24M4 8h24M4 24h16"></path>
    </symbol>
  </defs>
</svg>